<?xml version="1.0" ?><svg height="30" id="Layer_1" version="1.1" viewBox="0 0 512 512" width="30" xml:space="preserve" xmlns="http://www.w3.org/2000/svg" xmlns:cc="http://creativecommons.org/ns#" xmlns:dc="http://purl.org/dc/elements/1.1/" xmlns:inkscape="http://www.inkscape.org/namespaces/inkscape" xmlns:rdf="http://www.w3.org/1999/02/22-rdf-syntax-ns#" xmlns:sodipodi="http://sodipodi.sourceforge.net/DTD/sodipodi-0.dtd" xmlns:svg="http://www.w3.org/2000/svg" xmlns:xlink="http://www.w3.org/1999/xlink"><defs id="defs13"><linearGradient gradientTransform="translate(1635.9966,-2013.2351)" gradientUnits="userSpaceOnUse" id="linearGradient3006" x1="256.00049" x2="256.00049" xlink:href="#SVGID_1_-8" y1="512" y2="0.00048828131"/><linearGradient gradientUnits="userSpaceOnUse" id="SVGID_1_-8" x1="256.00049" x2="256.00049" y1="512" y2="0.00048828131"><stop id="stop4-8" offset="0" style="stop-color:#0c80b1;stop-opacity:1"/><stop id="stop6-2" offset="1" style="stop-color:#11a7df;stop-opacity:1"/></linearGradient><linearGradient gradientUnits="userSpaceOnUse" id="linearGradient3471" x1="256.00049" x2="256.00049" xlink:href="#SVGID_1_-8" y1="512" y2="0.00048828131"/><linearGradient gradientTransform="matrix(0,-1,-1,0,512,512)" gradientUnits="userSpaceOnUse" id="linearGradient3781" x1="-1.8544069e-006" x2="512" xlink:href="#SVGID_1_-8-1" y1="256" y2="256"/><linearGradient gradientUnits="userSpaceOnUse" id="SVGID_1_-8-1" x1="256.00049" x2="256.00049" y1="512" y2="0.00048828131"><stop id="stop4-8-7" offset="0" style="stop-color:#0c80b1;stop-opacity:1"/><stop id="stop6-2-4" offset="1" style="stop-color:#11a7df;stop-opacity:1"/></linearGradient><linearGradient gradientTransform="matrix(0,-1,-1,0,512,512)" gradientUnits="userSpaceOnUse" id="linearGradient3026" x1="-1.8544069e-006" x2="512" xlink:href="#SVGID_1_-8-1" y1="256" y2="256"/><linearGradient gradientTransform="matrix(0,-1,-1,0,1236.6102,130.16949)" gradientUnits="userSpaceOnUse" id="linearGradient3030" x1="-1.8544069e-006" x2="512" xlink:href="#SVGID_1_-8-1" y1="256" y2="256"/><linearGradient gradientUnits="userSpaceOnUse" id="linearGradient3040" x1="256.00049" x2="256.00049" xlink:href="#SVGID_1_-8" y1="512" y2="0.00048828131"/><linearGradient gradientTransform="matrix(0,-1,-1,0,511.9852,512.01324)" gradientUnits="userSpaceOnUse" id="linearGradient3009" x1="-1.8544069e-006" x2="512" xlink:href="#SVGID_1_-8-1" y1="256" y2="256"/></defs><linearGradient gradientTransform="matrix(0,1,-1,0,512,0)" gradientUnits="userSpaceOnUse" id="SVGID_1_" x1="0" x2="512" xlink:href="#SVGID_1_-8" y1="256" y2="256"><stop id="stop4" offset="0" style="stop-color:#00616f;stop-opacity:1"/><stop id="stop6" offset="1" style="stop-color:#284660;stop-opacity:1"/></linearGradient><path d="M 73.125,-1.3910978e-6 C 32.73606,-1.3910978e-6 0,32.767309 0,73.156249 L 0,438.875 C 0,479.26394 32.73606,512 73.125,512 l 365.7188,0 C 479.2326,512.009 512,479.26394 512,438.875 L 512,73.156249 C 512,32.758779 479.2326,-1.3910978e-6 438.8438,-1.3910978e-6 l -365.7188,0 z" id="path5" style="fill:url(#linearGradient3009);fill-opacity:1"/><path d="m 158.70312,53.453127 c -13.81194,0 -25.51914,4.892321 -35.09374,14.65625 -9.58362,9.761676 -14.375,21.787891 -14.375,36.125003 l 0,202.56249 c 0,41.82126 14.38286,77.55507 43.15624,107.21875 28.75311,29.68397 63.35875,44.53125 103.875,44.53125 l 97.28125,0 c 13.52346,0 25.07428,-4.99776 34.71875,-14.9375 9.66251,-9.9217 14.5,-21.89011 14.5,-35.8125 0,-13.92014 -4.83749,-25.87276 -14.5,-35.8125 -9.64447,-9.96227 -21.23588,-14.9375 -34.71875,-14.9375 l -97.3125,0 c -13.51444,0 -25.00234,-4.89457 -34.46875,-14.65625 -9.46416,-9.80224 -14.1852,-21.67525 -14.1875,-35.65625 l 0,-50.3125 145.96875,0 c 13.50317,0 25.07428,-4.96426 34.71875,-14.90624 9.66251,-9.93974 14.5,-21.91265 14.5,-35.8125 0,-13.94042 -4.81721,-25.87276 -14.5,-35.8125 -9.68504,-9.96227 -21.31097,-14.9375 -34.875,-14.9375 l -145.8125,0 0,-50.75 c 0,-13.940424 -4.78011,-25.872769 -14.375,-35.812503 -9.5543,-9.980305 -21.09375,-14.9375 -34.5,-14.9375 z" id="path3" style="fill:#ffffff;fill-opacity:1;fill-rule:evenodd"/></svg>